<svg xmlns="http://www.w3.org/2000/svg"
     xmlns:xlink="http://www.w3.org/1999/xlink"
     height="256"
     id="svg2"
     version="1.1"
     viewBox="0 0 256 256"
     width="256"
     >
  <style>
    .paper {
    fill: white;
    stroke: white;
    }

    .line {
    fill: none;
    stroke: #C8A078;
    }
  </style>
  <title id="title4843">Shopping list icon</title>
  <g id="layer1"
     transform="translate(0,0)" />
  <rect class="paper" style="stroke-width:4;stroke-linecap:square;stroke-linejoin:round;stroke-miterlimit:4;"
        height="192"
        id="outline"
        rx="16"
        ry="16"
        width="124"
        x="64"
        y="30" />
  <path class="line" style="stroke-width:4;stroke-linecap:round;stroke-linejoin:miter;stroke-miterlimit:4;"
        d="m 80 64 96 0"
        id="baseLine" />
  <use height="100%"
       transform="translate(0,30)"
       width="100%"
       x="0"
       y="0"
       xlink:href="#baseLine" />
  <use height="100%"
       transform="translate(0,62)"
       width="100%"
       x="0"
       y="0"
       xlink:href="#baseLine" />
  <use height="100%"
       transform="translate(0,94)"
       width="100%"
       x="0"
       y="0"
       xlink:href="#baseLine" />
  <use height="100%"
       transform="translate(0,126)"
       width="100%"
       x="0"
       y="0"
       xlink:href="#baseLine" />
  <path class="line" style="stroke-width:2;stroke-linecap:round;stroke-linejoin:round;stroke-miterlimit:4;"
        d="m 88 30 a 4 12 0 1 0 -4 12"
        id="baseHoop" />
  <use height="100%"
       transform="translate(12,0)"
       width="100%"
       x="0"
       y="0"
       xlink:href="#baseHoop" />
  <use height="100%"
       transform="translate(24,0)"
       width="100%"
       x="0"
       y="0"
       xlink:href="#baseHoop" />
  <use height="100%"
       transform="translate(36,0)"
       width="100%"
       x="0"
       y="0"
       xlink:href="#baseHoop" />
  <use height="100%"
       transform="translate(48,0)"
       width="100%"
       x="0"
       y="0"
       xlink:href="#baseHoop" />
  <use height="100%"
       transform="translate(60,0)"
       width="100%"
       x="0"
       y="0"
       xlink:href="#baseHoop" />
  <use height="100%"
       transform="translate(72,0)"
       width="100%"
       x="0"
       y="0"
       xlink:href="#baseHoop" />
  <use height="100%"
       transform="translate(84,0)"
       width="100%"
       x="0"
       y="0"
       xlink:href="#baseHoop" />
</svg>
